<svg xmlns="http://www.w3.org/2000/svg" xmlns:xlink="http://www.w3.org/1999/xlink" width="419" height="424" viewBox="0 0 419 424"><defs><clipPath id="b"><rect width="419" height="424"/></clipPath></defs><g id="a" clip-path="url(#b)"><rect width="419" height="424" fill="#fff"/><g transform="translate(159 162)"><g transform="translate(-148 -148)"><path d="M198.169,0C307.615,0,396.338,88.723,396.338,198.169S307.615,396.338,198.169,396.338,0,307.615,0,198.169,88.723,0,198.169,0Z" fill="#a3a3a3"/><g transform="translate(126.821 103.045)"><path d="M125.9,63.451a59.452,59.452,0,1,0-17.407,42.032A59.452,59.452,0,0,0,125.9,63.451Z" transform="translate(8.854 -4)" fill="#e8e8e8"/><path d="M6,67.845C6,81.056,34.239,94.268,81.3,94.268c44.153,0,75.3-13.211,75.3-26.423C156.608,41.423,127.064,15,81.3,15,34.239,15,6,41.423,6,67.845Z" transform="translate(-6 103.9)" fill="#e8e8e8"/></g></g></g></g></svg>