<svg xmlns="http://www.w3.org/2000/svg" xmlns:xlink="http://www.w3.org/1999/xlink" width="451" height="536" viewBox="0 0 451 536"><defs><linearGradient id="a" x1="0.5" x2="0.5" y2="1" gradientUnits="objectBoundingBox"><stop offset="0" stop-color="#9b1ac2"/><stop offset="0.005" stop-color="#b410e5"/><stop offset="1" stop-color="#6f118b"/></linearGradient><clipPath id="c"><rect width="451" height="536"/></clipPath></defs><g id="b" clip-path="url(#c)"><rect width="451" height="536" fill="#fff"/><path d="M538.6,702.118H299.363A83.9,83.9,0,0,1,238.2,675.585,82.677,82.677,0,0,1,216.241,613l22.873-286.168a35.286,35.286,0,0,1,11.42-23.31,35.874,35.874,0,0,1,24.317-9.516h45.164v66.448a14.741,14.741,0,0,0,4.39,10.531,15.076,15.076,0,0,0,21.207,0A14.739,14.739,0,0,0,350,360.454V294.006H320.016v-2.029a98.965,98.965,0,1,1,197.931,0V294H487.958v-2.029a68.976,68.976,0,1,0-137.952,0V294h137.95v66.448a14.739,14.739,0,0,0,4.393,10.531,15.076,15.076,0,0,0,21.207,0,14.741,14.741,0,0,0,4.39-10.531V294.006h45.164a35.9,35.9,0,0,1,35.737,32.866l13.977,174.9-39.939-38.568a11.3,11.3,0,0,0-8.16-3.328,13.9,13.9,0,0,0-8.742,3.223,13.6,13.6,0,0,0-4.459,9.352,11.166,11.166,0,0,0,.73,4.513,10.17,10.17,0,0,0,2.449,3.693l8.133,7.853c2.242,2.166,2.1,5.959-.308,8.456a6.621,6.621,0,0,1-4.711,2.068,5.327,5.327,0,0,1-3.731-1.465l-28.463-27.487a10.652,10.652,0,0,0-7.461-2.93A13.589,13.589,0,0,0,504.939,480a10.685,10.685,0,0,0,3.189,8.206l24.4,23.56a5.341,5.341,0,0,1,1.594,4.1,6.8,6.8,0,0,1-6.612,6.421,5.325,5.325,0,0,1-3.73-1.465l-36.595-35.34a10.651,10.651,0,0,0-7.46-2.931A13.593,13.593,0,0,0,466.5,495.394a10.682,10.682,0,0,0,3.189,8.207l36.595,35.339c2.242,2.166,2.1,5.958-.306,8.455a6.62,6.62,0,0,1-4.71,2.069A5.327,5.327,0,0,1,497.534,548l-72.777-70.28a17.61,17.61,0,0,0-10.584-13.707,17.05,17.05,0,0,0-6.631-1.341c-.418,0-.841.016-1.256.047a11.6,11.6,0,0,0-1.6-.111,13.55,13.55,0,0,0-13.219,13.874,17.127,17.127,0,0,0,.618,7.641,17.567,17.567,0,0,0,15.681,12.2l80.407,77.647a66.5,66.5,0,0,1,14.239,18.836,17,17,0,0,1,1.571,8.623,19.772,19.772,0,0,1-2.867,8.768,20.761,20.761,0,0,1-6.458,6.642,19.362,19.362,0,0,1-8.53,3.027c-3.093.3-6.219.447-9.291.447a93.769,93.769,0,0,1-12.532-.838,134.694,134.694,0,0,0-17.229-1.034,145.65,145.65,0,0,0-25.522,2.138,61.388,61.388,0,0,0-9.546,2.45A15.361,15.361,0,0,0,406.3,626.2a12.756,12.756,0,0,0-3.72,11.867c.784,2.015,2.849,3.036,6.138,3.036.4,0,.815-.015,1.248-.045,1.054-.075,2.235-.113,3.511-.113,9.461,0,24.854,2.1,42.231,5.752a377.607,377.607,0,0,1,48.512,13.412,85.974,85.974,0,0,0,18.777,4.2,165.117,165.117,0,0,0,19.8,1.1c6.519,0,13.317-.3,20.207-.894,1.113-.09,2.237-.135,3.341-.135A37.176,37.176,0,0,1,592.4,674.627l1.488,1.437a5.326,5.326,0,0,0,3.73,1.465c.085,0,.174,0,.266-.006a83.2,83.2,0,0,1-12.716,10.448A83.954,83.954,0,0,1,538.6,702.118ZM418.517,414.733l-.117,0a77.464,77.464,0,0,0-75.393,72.806,4.23,4.23,0,0,0,1.119,3.141,4.288,4.288,0,0,0,3.073,1.411l12.716.348h.005l.112,0a4.156,4.156,0,0,0,2.817-1.091,4.084,4.084,0,0,0,1.315-2.718,56.812,56.812,0,0,1,54.589-52.716,4.124,4.124,0,0,0,3.953-4.115l.1-12.72a4.293,4.293,0,0,0-1.259-3.078A4.238,4.238,0,0,0,418.517,414.733Zm-.3-41.982H418.2a120.224,120.224,0,0,0-23.125,2.357,117.194,117.194,0,0,0-90.86,87.748,120.2,120.2,0,0,0-3.161,23.021,4.261,4.261,0,0,0,1.16,3.094,4.309,4.309,0,0,0,3.041,1.386l12.675.381h.006l.124,0a4.082,4.082,0,0,0,2.847-1.141,4.134,4.134,0,0,0,1.259-2.812,96.842,96.842,0,0,1,96.208-92.906,4.1,4.1,0,0,0,4.1-4.1l.063-12.68a4.315,4.315,0,0,0-1.274-3.079A4.266,4.266,0,0,0,418.222,372.75Zm67.935,73.1h0c-.008.021.628.715,1.8,1.989a15.161,15.161,0,0,0-1.423-1.631,4.3,4.3,0,0,0-.38-.359ZM598.24,660.618h0a5.24,5.24,0,0,1-5.325-5.569,6.634,6.634,0,0,1,1.9-4.353l4.374-4.53a6.621,6.621,0,0,1,4.71-2.067,5.323,5.323,0,0,1,3.73,1.465c2.242,2.165,2.1,5.959-.307,8.456l-4.375,4.53A6.62,6.62,0,0,1,598.24,660.618ZM619.8,637.964h0a5.243,5.243,0,0,1-3.419-1.457,5.341,5.341,0,0,1-1.594-4.1,6.633,6.633,0,0,1,1.9-4.353l5.2-5.381a82.584,82.584,0,0,1-2.083,15.294ZM615.359,537.1a5.322,5.322,0,0,1-3.727-1.464l-24.4-23.562c-2.242-2.166-2.1-5.959.308-8.456a6.615,6.615,0,0,1,4.708-2.066,5.327,5.327,0,0,1,3.731,1.465l18.36,17.731,1.306,16.346C615.542,537.1,615.446,537.1,615.359,537.1Z" transform="translate(-194 -180.93)" fill="url(#a)"/></g></svg>