<svg xmlns="http://www.w3.org/2000/svg" xmlns:xlink="http://www.w3.org/1999/xlink" width="605" height="150" viewBox="0 0 605 150"><defs><linearGradient id="a" x1="0.5" x2="0.5" y2="1" gradientUnits="objectBoundingBox"><stop offset="0" stop-color="#9b1ac2"/><stop offset="0.005" stop-color="#b410e5"/><stop offset="1" stop-color="#6f118b"/></linearGradient><clipPath id="c"><rect width="605" height="150"/></clipPath></defs><g id="b" clip-path="url(#c)"><rect width="605" height="150" fill="#fff"/><g transform="translate(-3)"><g transform="translate(21.999 12.071)"><g transform="translate(0)"><path d="M76.084,121.124H19.661a19.684,19.684,0,0,1-19.6-21.2L5.451,31.84a8.492,8.492,0,0,1,8.429-7.81H24.532V39.839a3.537,3.537,0,1,0,7.073,0V24.03H24.532v-.483a23.342,23.342,0,1,1,46.682,0v.483H81.865a8.5,8.5,0,0,1,8.429,7.819l3.3,41.612-9.419-9.176a2.654,2.654,0,0,0-1.925-.792,3.091,3.091,0,0,0-3.114,2.992,2.68,2.68,0,0,0,.172,1.074,2.421,2.421,0,0,0,.577.878L81.8,70.306a1.274,1.274,0,0,1,.377.907,1.59,1.59,0,0,1-.449,1.1,1.555,1.555,0,0,1-1.111.492,1.25,1.25,0,0,1-.88-.349l-6.713-6.539a2.5,2.5,0,0,0-1.76-.7,3.11,3.11,0,0,0-2.222.984,3.18,3.18,0,0,0-.9,2.21,2.548,2.548,0,0,0,.754,1.813l5.754,5.605a1.274,1.274,0,0,1,.377.907,1.591,1.591,0,0,1-.449,1.105,1.556,1.556,0,0,1-1.111.492,1.25,1.25,0,0,1-.88-.349l-8.631-8.407a2.5,2.5,0,0,0-1.76-.7,3.111,3.111,0,0,0-2.222.984,3.182,3.182,0,0,0-.9,2.211,2.548,2.548,0,0,0,.754,1.813L68.462,82.3a1.275,1.275,0,0,1,.377.907,1.59,1.59,0,0,1-.449,1.1,1.555,1.555,0,0,1-1.111.492,1.251,1.251,0,0,1-.88-.349L49.235,67.737a4.181,4.181,0,0,0-2.5-3.261,3.989,3.989,0,0,0-1.563-.319c-.1,0-.2,0-.3.011a2.71,2.71,0,0,0-.379-.027,3.11,3.11,0,0,0-2.221.984,3.155,3.155,0,0,0-.9,2.317,4.147,4.147,0,0,0,3.844,4.721L64.191,90.637a15.8,15.8,0,0,1,3.358,4.482,4.076,4.076,0,0,1,.371,2.051,4.734,4.734,0,0,1-.676,2.086,4.92,4.92,0,0,1-1.523,1.58,4.539,4.539,0,0,1-2.012.72c-.729.071-1.467.107-2.192.107a21.937,21.937,0,0,1-2.955-.2,31.5,31.5,0,0,0-4.064-.246,34.06,34.06,0,0,0-6.019.509,7.488,7.488,0,0,0-3.6,1.338A3.051,3.051,0,0,0,44,105.887c.185.479.672.722,1.448.722.093,0,.192,0,.294-.011.248-.018.527-.027.829-.027a54.385,54.385,0,0,1,9.96,1.368,88.42,88.42,0,0,1,11.441,3.191,27.126,27.126,0,0,0,9.1,1.261c1.538,0,3.142-.072,4.767-.213.262-.021.527-.032.788-.032a8.726,8.726,0,0,1,6.147,2.437l.351.342a1.25,1.25,0,0,0,.88.349h.062a19.684,19.684,0,0,1-13.983,5.851ZM47.764,52.753h-.028A18.285,18.285,0,0,0,31.644,63.365a18.622,18.622,0,0,0-1.69,6.709,1.008,1.008,0,0,0,.166.621,1.021,1.021,0,0,0,.823.462l3,.083h.027a.975.975,0,0,0,.975-.906A13.648,13.648,0,0,1,36.207,65.5a13.381,13.381,0,0,1,11.612-7.706.977.977,0,0,0,.932-.979l.023-3.026a1.024,1.024,0,0,0-.2-.612A1.011,1.011,0,0,0,47.764,52.753Zm-.075-9.988a27.663,27.663,0,0,0-22.565,11.8A27.99,27.99,0,0,0,20.806,64.2a28.832,28.832,0,0,0-.745,5.477,1.014,1.014,0,0,0,.176.613,1.027,1.027,0,0,0,.815.453l2.989.09h.031a.974.974,0,0,0,.969-.94,23.16,23.16,0,0,1,6.955-15.637A22.765,22.765,0,0,1,47.73,47.791a.97.97,0,0,0,.966-.975l.015-3.017a1.031,1.031,0,0,0-1.017-1.036h-.005Zm16.027,17.39h0c0,.006.131.151.425.473a3.6,3.6,0,0,0-.335-.388,1.032,1.032,0,0,0-.09-.085ZM31.6,24.03H64.14V39.839a3.537,3.537,0,1,0,7.073,0V24.03H64.141v-.483a16.268,16.268,0,1,0-32.536,0v.483ZM90.15,111.251a1.25,1.25,0,0,1-.88-.349,1.274,1.274,0,0,1-.377-.907,1.59,1.59,0,0,1,.449-1.1l1.032-1.078a1.556,1.556,0,0,1,1.111-.492,1.25,1.25,0,0,1,.88.349,1.274,1.274,0,0,1,.377.907,1.59,1.59,0,0,1-.449,1.1l-1.032,1.078A1.556,1.556,0,0,1,90.15,111.251Zm5.085-5.39h0a1.231,1.231,0,0,1-.806-.346,1.274,1.274,0,0,1-.377-.907A1.591,1.591,0,0,1,94.5,103.5l1.225-1.28a19.806,19.806,0,0,1-.491,3.638Zm-1.047-24a1.249,1.249,0,0,1-.879-.348l-5.754-5.606A1.273,1.273,0,0,1,87.178,75a1.59,1.59,0,0,1,.449-1.105,1.555,1.555,0,0,1,1.11-.492,1.25,1.25,0,0,1,.88.349l4.33,4.218.308,3.889Z" fill="url(#a)"/></g></g></g><text transform="translate(125 106)" fill="#707070" font-size="112" font-family="Aqum"><tspan x="0" y="0">G</tspan><tspan y="0" font-family="Rounded-Regular, Rounded">ats</tspan><tspan y="0" fill="#8f10b5" font-family="Rounded-Regular, Rounded">Bay</tspan></text><text transform="translate(133 130)" fill="#707070" font-size="23.8" font-family="HelveticaNeue-Bold, Helvetica Neue" font-weight="700"><tspan x="0" y="0" xml:space="preserve">Reliable &amp; Secure Online  shopping</tspan></text></g></svg>