<svg xmlns="http://www.w3.org/2000/svg" width="291.555" height="129" viewBox="0 0 291.555 129"><g transform="translate(-694 -467.391)"><g transform="translate(694 467)"><text transform="translate(0 102.391)" fill="#a3a3a3" font-size="110" font-family="SimplyRounded, Simply Rounded"><tspan x="0" y="0">R</tspan><tspan y="0" font-family="Arista2.0, 'Arista 2.0'">ora</tspan></text><g transform="translate(221.603 39.307)"><path d="M22.251,21.045c1.275-6.32,7.554-9.825,16.2-7.218S66.958,26.71,85.9,42.022c6.014,4.861,5.27,12.632.187,16.493C70.557,70.318,47.744,82.255,38.448,85.7c-10.385,3.851-15.11-1.238-16.1-7.263-2.61-15.929-3.06-42.732-.1-57.4h0Z" transform="translate(-20.208 -12.958)" fill="#bc0606"/><text transform="translate(7.397 55.084)" fill="#fff" font-size="45" font-family="TypoRoundBoldDemo, Typo Round Bold Demo"><tspan x="0" y="0">Tv</tspan></text><text transform="matrix(-0.017, -1, 1, -0.017, 14.66, 53.771)" fill="#a3a3a3" font-size="13" font-family="SimplyRounded, Simply Rounded"><tspan x="0" y="0">R</tspan><tspan y="0" font-family="Arista2.0, 'Arista 2.0'">ora</tspan></text></g></g></g></svg>