<svg xmlns="http://www.w3.org/2000/svg" xmlns:xlink="http://www.w3.org/1999/xlink" width="451" height="536" viewBox="0 0 451 536"><defs><linearGradient id="a" x1="0.5" x2="0.5" y2="1" gradientUnits="objectBoundingBox"><stop offset="0" stop-color="#9b1ac2"/><stop offset="0.005" stop-color="#b410e5"/><stop offset="1" stop-color="#6f118b"/></linearGradient><clipPath id="c"><rect width="451" height="536"/></clipPath></defs><g id="b" clip-path="url(#c)"><rect width="451" height="536" fill="#fff"/><path d="M538.6,702.118H299.363A83.9,83.9,0,0,1,238.2,675.585,82.677,82.677,0,0,1,216.241,613l22.873-286.168a35.286,35.286,0,0,1,11.42-23.31,35.874,35.874,0,0,1,24.317-9.516h45.164v66.448a14.741,14.741,0,0,0,4.39,10.531,15.076,15.076,0,0,0,21.207,0A14.739,14.739,0,0,0,350,360.454V294.006H320.016v-2.029a98.965,98.965,0,1,1,197.931,0V294H487.958v-2.029a68.976,68.976,0,1,0-137.952,0V294h137.95v66.448a14.739,14.739,0,0,0,4.393,10.531,15.076,15.076,0,0,0,21.207,0,14.741,14.741,0,0,0,4.39-10.531V294.006h45.164a35.9,35.9,0,0,1,35.737,32.866l22.862,286.088a82.136,82.136,0,0,1-.171,14.555l-.115-.111a13.4,13.4,0,0,1-4.022-10.819,40.245,40.245,0,0,0-1.587-14.867,53.8,53.8,0,0,0-5.312-12.078,59.267,59.267,0,0,0-8.414-11.189l-54.959-53.074a9.58,9.58,0,0,0-6.922-2.815,12.066,12.066,0,0,0-7.6,2.819,11.86,11.86,0,0,0-3.882,8.063,9.543,9.543,0,0,0,.6,3.876,8.582,8.582,0,0,0,2.083,3.16l6.945,6.706c1.914,1.848,1.774,5.11-.311,7.27a5.757,5.757,0,0,1-4.092,1.8,4.515,4.515,0,0,1-3.163-1.239l-24.3-23.468a9.03,9.03,0,0,0-6.328-2.478,11.863,11.863,0,0,0-11.5,11.111,9.072,9.072,0,0,0,2.695,7.035l20.83,20.115c1.914,1.848,1.774,5.11-.311,7.27a5.755,5.755,0,0,1-4.091,1.8,4.515,4.515,0,0,1-3.164-1.239L473.376,545a9.031,9.031,0,0,0-6.328-2.478,11.866,11.866,0,0,0-11.5,11.111,9.073,9.073,0,0,0,2.694,7.037l31.243,30.172a4.537,4.537,0,0,1,1.347,3.517,5.931,5.931,0,0,1-5.748,5.555,4.518,4.518,0,0,1-3.165-1.239l-64-61.807a17.575,17.575,0,0,0-10.745-15.857,17.047,17.047,0,0,0-6.631-1.341,16.168,16.168,0,0,0-16.262,16.267A17.284,17.284,0,0,0,389.2,548a17.462,17.462,0,0,0,5.831,4,17.047,17.047,0,0,0,6.631,1.341,16.841,16.841,0,0,0,1.858-.1l70.215,67.806a56.121,56.121,0,0,1,12.128,16.111,14.524,14.524,0,0,1,1.3,7.4,17.2,17.2,0,0,1-2.511,7.552,18.188,18.188,0,0,1-5.586,5.745,16.83,16.83,0,0,1-7.345,2.649,83.9,83.9,0,0,1-8.516.438,80.168,80.168,0,0,1-10.23-.652,114.285,114.285,0,0,0-13.917-.8,126.875,126.875,0,0,0-22.46,1.914c-6.826,1.273-11.619,3.044-13.5,4.987a11.081,11.081,0,0,0-3.262,10.22c.656,1.709,2.4,2.576,5.172,2.576.366,0,.756-.015,1.158-.046,1.007-.078,2.148-.118,3.392-.118,8.212,0,21.4,1.74,36.19,4.774A320.676,320.676,0,0,1,487.041,695c8.047,2.883,18.8,4.345,31.969,4.345,4.084,0,10.61-.153,18.508-.884,1.032-.09,2.074-.135,3.1-.135A32.818,32.818,0,0,1,553.3,700.81,83.631,83.631,0,0,1,538.6,702.118ZM411.519,471.733l-.119,0a77.464,77.464,0,0,0-75.393,72.806,4.232,4.232,0,0,0,1.119,3.142,4.291,4.291,0,0,0,3.073,1.411l12.715.347h.117a4.156,4.156,0,0,0,2.817-1.09,4.084,4.084,0,0,0,1.316-2.718,56.814,56.814,0,0,1,54.589-52.716,4.124,4.124,0,0,0,3.953-4.114l.1-12.72a4.294,4.294,0,0,0-1.26-3.079A4.235,4.235,0,0,0,411.519,471.733Zm-.306-41.983H411.2a120.23,120.23,0,0,0-23.125,2.357,117.192,117.192,0,0,0-90.859,87.748,120.2,120.2,0,0,0-3.161,23.022,4.261,4.261,0,0,0,1.159,3.094,4.311,4.311,0,0,0,3.041,1.387l12.675.38h.132a4.08,4.08,0,0,0,2.846-1.141,4.136,4.136,0,0,0,1.259-2.81,96.841,96.841,0,0,1,96.207-92.907,4.1,4.1,0,0,0,4.1-4.1l.063-12.68a4.313,4.313,0,0,0-1.273-3.078,4.265,4.265,0,0,0-3.038-1.274Zm74.945,16.1h0c-.008.021.628.715,1.8,1.989a15.162,15.162,0,0,0-1.423-1.631,4.3,4.3,0,0,0-.38-.359Zm81.625,249.067h0a4.434,4.434,0,0,1-4.511-4.757,5.779,5.779,0,0,1,1.659-3.752l3.783-3.918a5.755,5.755,0,0,1,4.091-1.8,4.433,4.433,0,0,1,4.51,4.757,5.778,5.778,0,0,1-1.658,3.752l-3.783,3.918A5.755,5.755,0,0,1,567.783,694.915ZM586.7,675.328a4.517,4.517,0,0,1-3.164-1.239c-1.914-1.848-1.774-5.11.311-7.27L610.324,639.4a5.754,5.754,0,0,1,4.091-1.8,4.514,4.514,0,0,1,3.164,1.239,4.432,4.432,0,0,1,1.312,2.668c-.4,1.426-.844,2.861-1.32,4.264-.1.116-.2.23-.3.338l-26.48,27.421A5.758,5.758,0,0,1,586.7,675.328ZM600.226,612.6a4.49,4.49,0,0,1-3.252-1.33,4.558,4.558,0,0,1-1.259-3.337,10.363,10.363,0,0,0-1.894-7.182,4.609,4.609,0,0,1-1.2-3.55,5.857,5.857,0,0,1,1.731-3.689,5.685,5.685,0,0,1,4-1.735,4.461,4.461,0,0,1,3.118,1.218,17.781,17.781,0,0,1,3.664,6.469,19.827,19.827,0,0,1,.842,7.671,5.951,5.951,0,0,1-5.343,5.45C600.495,612.592,600.359,612.6,600.226,612.6Zm-17.049-23.944h0a4.512,4.512,0,0,1-3.162-1.238L559.184,567.3c-1.914-1.849-1.774-5.111.311-7.271a5.753,5.753,0,0,1,4.089-1.8,4.517,4.517,0,0,1,3.165,1.239l20.831,20.116a4.535,4.535,0,0,1,1.347,3.517,5.933,5.933,0,0,1-5.75,5.555Z" transform="translate(-194 -180.93)" fill="url(#a)"/></g></svg>